<svg width="25" height="24" viewBox="0 0 25 24" fill="none" xmlns="http://www.w3.org/2000/svg">
<path d="M21.25 7V6.25C21.25 4.458 19.792 3 18 3H6.5C4.708 3 3.25 4.458 3.25 6.25V7H21.25ZM3.25 8.5V17.75C3.25 19.542 4.708 21 6.5 21H18C19.792 21 21.25 19.542 21.25 17.75V8.5H3.25ZM8 18C7.3095 18 6.75 17.4405 6.75 16.75C6.75 16.0595 7.3095 15.5 8 15.5C8.6905 15.5 9.25 16.0595 9.25 16.75C9.25 17.4405 8.6905 18 8 18ZM8 13.5C7.3095 13.5 6.75 12.9405 6.75 12.25C6.75 11.5595 7.3095 11 8 11C8.6905 11 9.25 11.5595 9.25 12.25C9.25 12.9405 8.6905 13.5 8 13.5ZM12.25 18C11.5595 18 11 17.4405 11 16.75C11 16.0595 11.5595 15.5 12.25 15.5C12.9405 15.5 13.5 16.0595 13.5 16.75C13.5 17.4405 12.9405 18 12.25 18ZM12.25 13.5C11.5595 13.5 11 12.9405 11 12.25C11 11.5595 11.5595 11 12.25 11C12.9405 11 13.5 11.5595 13.5 12.25C13.5 12.9405 12.9405 13.5 12.25 13.5ZM16.5 13.5C15.8095 13.5 15.25 12.9405 15.25 12.25C15.25 11.5595 15.8095 11 16.5 11C17.1905 11 17.75 11.5595 17.75 12.25C17.75 12.9405 17.1905 13.5 16.5 13.5Z" fill="#637394"/>
</svg>
