<svg width="8" height="8" viewBox="0 0 8 8" fill="none" xmlns="http://www.w3.org/2000/svg">
<path d="M5.83051 1.82845C5.74243 1.83053 5.65875 1.86739 5.59777 1.93099L4.00011 3.52864L2.40245 1.93099C2.37135 1.89902 2.33415 1.87361 2.29305 1.85628C2.25196 1.83894 2.2078 1.83003 2.1632 1.83007C2.09691 1.83016 2.03216 1.85 1.97721 1.88706C1.92225 1.92412 1.8796 1.97672 1.85468 2.03815C1.82977 2.09957 1.82374 2.16703 1.83735 2.2319C1.85096 2.29677 1.8836 2.35611 1.9311 2.40234L3.52876 4L1.9311 5.59765C1.89911 5.62837 1.87357 5.66516 1.85597 5.70587C1.83838 5.74658 1.82908 5.79039 1.82863 5.83474C1.82818 5.87908 1.83658 5.92307 1.85334 5.96413C1.87011 6.00519 1.89489 6.04249 1.92625 6.07385C1.95761 6.10521 1.99492 6.13 2.03597 6.14676C2.07703 6.16353 2.12103 6.17193 2.16537 6.17148C2.20972 6.17103 2.25353 6.16173 2.29424 6.14414C2.33495 6.12654 2.37174 6.101 2.40245 6.06901L4.00011 4.47135L5.59777 6.06901C5.62848 6.101 5.66527 6.12654 5.70598 6.14414C5.74669 6.16173 5.7905 6.17103 5.83485 6.17148C5.8792 6.17193 5.92319 6.16353 5.96425 6.14677C6.00531 6.13 6.04261 6.10522 6.07397 6.07386C6.10533 6.0425 6.13011 6.00519 6.14688 5.96413C6.16364 5.92308 6.17204 5.87908 6.17159 5.83474C6.17114 5.79039 6.16184 5.74658 6.14425 5.70587C6.12665 5.66516 6.10111 5.62837 6.06912 5.59765L4.47146 4L6.06912 2.40234C6.11763 2.35583 6.15094 2.29575 6.1647 2.22997C6.17846 2.16419 6.17201 2.09579 6.14621 2.03374C6.12041 1.97169 6.07646 1.91888 6.02013 1.88225C5.96379 1.84561 5.8977 1.82686 5.83051 1.82845Z" fill="#637394"/>
</svg>
