<svg width="19" height="18" viewBox="0 0 19 18" fill="none" xmlns="http://www.w3.org/2000/svg">
<path d="M18.5 4V3.25C18.5 1.458 17.042 0 15.25 0H3.75C1.958 0 0.5 1.458 0.5 3.25V4H18.5ZM0.5 5.5V14.75C0.5 16.542 1.958 18 3.75 18H15.25C17.042 18 18.5 16.542 18.5 14.75V5.5H0.5ZM5.25 15C4.5595 15 4 14.4405 4 13.75C4 13.0595 4.5595 12.5 5.25 12.5C5.9405 12.5 6.5 13.0595 6.5 13.75C6.5 14.4405 5.9405 15 5.25 15ZM5.25 10.5C4.5595 10.5 4 9.9405 4 9.25C4 8.5595 4.5595 8 5.25 8C5.9405 8 6.5 8.5595 6.5 9.25C6.5 9.9405 5.9405 10.5 5.25 10.5ZM9.5 15C8.8095 15 8.25 14.4405 8.25 13.75C8.25 13.0595 8.8095 12.5 9.5 12.5C10.1905 12.5 10.75 13.0595 10.75 13.75C10.75 14.4405 10.1905 15 9.5 15ZM9.5 10.5C8.8095 10.5 8.25 9.9405 8.25 9.25C8.25 8.5595 8.8095 8 9.5 8C10.1905 8 10.75 8.5595 10.75 9.25C10.75 9.9405 10.1905 10.5 9.5 10.5ZM13.75 10.5C13.0595 10.5 12.5 9.9405 12.5 9.25C12.5 8.5595 13.0595 8 13.75 8C14.4405 8 15 8.5595 15 9.25C15 9.9405 14.4405 10.5 13.75 10.5Z" fill="#637394"/>
</svg>
