<svg width="49" height="48" viewBox="0 0 49 48" fill="none" xmlns="http://www.w3.org/2000/svg">
<g clip-path="url(#clip0_21_2686)">
<path d="M34.479 48H37.5592C37.7999 48 38.0042 47.8358 38.0562 47.6008C38.2897 46.5461 43.7819 21.6792 44.595 13.9449C44.6728 13.2052 44.4179 12.4669 43.8771 11.8664C43.1534 11.0626 42.0119 10.5826 40.824 10.5826C40.1294 10.5826 39.4553 10.7514 38.8691 11.0647L36.9845 26.9211C37.4223 27.6664 37.6525 28.463 37.6525 29.2913C37.6525 30.4734 37.1887 31.5919 36.3112 32.5867L34.479 48Z" fill="#637394"/>
<path d="M27.7646 10.5826C27.0884 10.5826 26.4324 10.7441 25.8574 11.0416V22.0416C26.9141 22.0991 27.9435 22.2239 28.9278 22.411L29.6413 11.0269C29.0732 10.7391 28.4289 10.5826 27.7646 10.5826Z" fill="#637394"/>
<path d="M23.1426 11.0414C22.5676 10.7439 21.9116 10.5825 21.2354 10.5825C20.571 10.5825 19.9266 10.7391 19.3589 11.0266L20.0724 22.4107C21.0567 22.2235 22.086 22.0988 23.1428 22.0412V11.0414H23.1426Z" fill="#637394"/>
<path d="M14.0635 29.2914C14.0635 31.4497 18.5268 33.864 24.5002 33.864C30.4736 33.864 34.9372 31.4497 34.9372 29.2914C34.9372 27.133 30.4738 24.7188 24.5002 24.7188C18.527 24.7188 14.0635 27.1328 14.0635 29.2914Z" fill="#637394"/>
<path d="M36.1407 11.0121C35.5801 10.7341 34.947 10.5826 34.2941 10.5826C33.6076 10.5826 32.9414 10.7483 32.3599 11.0547L31.604 23.1147C32.2569 23.3399 32.8754 23.5968 33.4497 23.8856C33.8383 24.081 34.1989 24.2891 34.5367 24.5065L36.1407 11.0121Z" fill="#637394"/>
<path d="M10.1312 11.0647C9.54502 10.7514 8.87092 10.5826 8.17629 10.5826C6.98825 10.5826 5.84676 11.0625 5.1232 11.8664C4.58244 12.4669 4.32757 13.2052 4.4053 13.9451C5.21839 21.6794 10.7106 46.5461 10.9441 47.6008C10.9962 47.8358 11.2005 48 11.4411 48H14.5213L12.6893 32.5864C11.812 31.5916 11.3483 30.4731 11.3483 29.2913C11.3483 28.4632 11.5783 27.6668 12.016 26.9215L10.1312 11.0647Z" fill="#637394"/>
<path d="M14.706 10.5826C14.0532 10.5826 13.42 10.7342 12.8594 11.0121L14.4633 24.5065C14.801 24.2891 15.1616 24.081 15.5504 23.8854C16.1245 23.5968 16.7432 23.3399 17.3959 23.1147L16.6401 11.0547C16.0586 10.7483 15.3925 10.5826 14.706 10.5826Z" fill="#637394"/>
<path d="M17.2558 48H18.9557L18.186 35.7193C17.2889 35.456 16.4485 35.1352 15.6821 34.7603L17.2558 48Z" fill="#637394"/>
<path d="M8.17616 8.20689C9.3364 8.20689 10.4677 8.51105 11.441 9.07493C12.4142 8.51105 13.5455 8.20689 14.7058 8.20689C15.8659 8.20689 16.9972 8.51105 17.9706 9.07509C18.9438 8.51105 20.0751 8.20689 21.2352 8.20689C22.3955 8.20689 23.5268 8.51105 24.5 9.07493C25.4733 8.51105 26.6046 8.20689 27.7648 8.20689C28.9249 8.20689 30.0562 8.51105 31.0295 9.07509C32.0029 8.51105 33.1342 8.20689 34.2943 8.20689C35.4545 8.20689 36.5859 8.51105 37.5591 9.07493C38.5324 8.51105 39.6637 8.20689 40.8239 8.20689C41.2325 8.20689 41.6381 8.24664 42.0356 8.31937C42.0323 8.31614 42.0289 8.31258 42.0259 8.30935C41.8059 8.08535 41.5787 7.85359 41.484 7.69731C41.4272 7.59679 41.3445 7.26046 41.2895 7.03808C41.0953 6.24955 40.8294 5.16979 39.8838 4.40325C39.1014 3.76874 38.1676 3.68066 37.4174 3.61004C37.1085 3.58111 36.6854 3.54102 36.5492 3.47266C36.4459 3.40672 36.2085 3.12535 36.0512 2.939C35.5851 2.38692 34.9467 1.63121 33.9507 1.30215C33.039 1.00106 32.1655 1.1942 31.4634 1.34919C31.1863 1.41044 30.7669 1.50337 30.6432 1.48187C30.5219 1.44389 30.2117 1.2207 30.0065 1.07298C29.4096 0.643568 28.6668 0.109103 27.6714 0.0137498C26.7203 -0.0770785 25.9142 0.29076 25.2656 0.58668C25.0145 0.701265 24.6347 0.874356 24.5033 0.881629C24.3656 0.874518 23.9856 0.701104 23.7341 0.58668C23.0854 0.29076 22.2773 -0.0765937 21.3282 0.0139114C20.3329 0.109265 19.59 0.643568 18.9931 1.07298C18.7879 1.2207 18.4776 1.44389 18.3716 1.47816C18.2313 1.50304 17.8135 1.41044 17.5362 1.34919C16.8343 1.19371 15.9607 1.00106 15.0494 1.30215C14.0535 1.63088 13.4151 2.38676 12.9488 2.93884C12.7916 3.12486 12.554 3.4064 12.4642 3.46507C12.3145 3.54103 11.8916 3.58094 11.5827 3.60987C10.8325 3.68066 9.89899 3.76858 9.11693 4.40276C8.17099 5.16963 7.90497 6.24939 7.71086 7.03759C7.65608 7.26014 7.57317 7.59646 7.51741 7.69521C7.42141 7.85359 7.19418 8.08535 6.97438 8.30935C6.97131 8.31258 6.96791 8.31598 6.96484 8.31921C7.36193 8.24681 7.76759 8.20689 8.17616 8.20689Z" fill="#637394"/>
<path d="M31.7443 48L33.318 34.7603C32.5516 35.1352 31.7112 35.456 30.814 35.7191L30.0444 48H31.7443Z" fill="#637394"/>
<path d="M27.3241 48L28.056 36.3197C27.3411 36.426 26.606 36.5004 25.8574 36.5411V48H27.3241Z" fill="#637394"/>
<path d="M23.1425 48V36.5411C22.3939 36.5004 21.6588 36.426 20.9438 36.3197L21.676 48H23.1425Z" fill="#637394"/>
</g>
<defs>
<clipPath id="clip0_21_2686">
<rect width="48" height="48" fill="white" transform="translate(0.5)"/>
</clipPath>
</defs>
</svg>
