<svg width="12" height="13" viewBox="0 0 12 13" fill="none" xmlns="http://www.w3.org/2000/svg">
<path d="M6 1.5C3.24 1.5 1 3.74 1 6.5C1 9.26 3.24 11.5 6 11.5C8.76 11.5 11 9.26 11 6.5C11 3.74 8.76 1.5 6 1.5ZM6 10.5C3.79 10.5 2 8.71 2 6.5C2 4.29 3.79 2.5 6 2.5C8.21 2.5 10 4.29 10 6.5C10 8.71 8.21 10.5 6 10.5Z" fill="#6D9EFF" fill-opacity="0.1"/>
<path d="M6 9C7.38071 9 8.5 7.88071 8.5 6.5C8.5 5.11929 7.38071 4 6 4C4.61929 4 3.5 5.11929 3.5 6.5C3.5 7.88071 4.61929 9 6 9Z" fill="#6D9EFF" fill-opacity="0.1"/>
</svg>
