<svg width="375" height="40" viewBox="0 0 375 40" fill="none" xmlns="http://www.w3.org/2000/svg">
<path d="M20 20C20 31.0457 11.0457 40 0 40V0C11.0457 0 20 8.9543 20 20Z" fill="#1A2232"/>
<circle cx="34.4119" cy="20" r="6" fill="#1A2232"/>
<circle cx="54.8235" cy="20" r="6" fill="#1A2232"/>
<circle cx="75.2354" cy="20" r="6" fill="#1A2232"/>
<circle cx="95.647" cy="20" r="6" fill="#1A2232"/>
<circle cx="116.059" cy="20" r="6" fill="#1A2232"/>
<circle cx="136.471" cy="20" r="6" fill="#1A2232"/>
<circle cx="156.882" cy="20" r="6" fill="#1A2232"/>
<circle cx="177.294" cy="20" r="6" fill="#1A2232"/>
<circle cx="197.706" cy="20" r="6" fill="#1A2232"/>
<circle cx="218.118" cy="20" r="6" fill="#1A2232"/>
<circle cx="238.529" cy="20" r="6" fill="#1A2232"/>
<circle cx="258.941" cy="20" r="6" fill="#1A2232"/>
<circle cx="279.353" cy="20" r="6" fill="#1A2232"/>
<circle cx="299.765" cy="20" r="6" fill="#1A2232"/>
<circle cx="320.176" cy="20" r="6" fill="#1A2232"/>
<circle cx="340.588" cy="20" r="6" fill="#1A2232"/>
<path d="M355 20C355 8.9543 363.954 -9.65645e-07 375 0L375 40C363.954 40 355 31.0457 355 20Z" fill="#1A2232"/>
</svg>
